<mxfile host="app.diagrams.net" agent="Mozilla/5.0 (X11; Linux x86_64) AppleWebKit/537.36 (KHTML, like Gecko) Chrome/141.0.0.0 Safari/537.36" version="28.2.8">
  <diagram name="Halaman-1" id="3mivX01E1dRD8DzA9nwZ">
    <mxGraphModel dx="1624" dy="296" grid="1" gridSize="10" guides="1" tooltips="1" connect="1" arrows="1" fold="1" page="1" pageScale="1" pageWidth="827" pageHeight="1169" math="0" shadow="0">
      <root>
        <mxCell id="0" />
        <mxCell id="1" parent="0" />
        <mxCell id="WWGTJWQt7VlASsxpaa12-1" value="&lt;u&gt;name&lt;/u&gt;" style="ellipse;whiteSpace=wrap;html=1;" vertex="1" parent="1">
          <mxGeometry x="-70" y="140" width="120" height="50" as="geometry" />
        </mxCell>
        <mxCell id="WWGTJWQt7VlASsxpaa12-17" style="edgeStyle=orthogonalEdgeStyle;rounded=0;orthogonalLoop=1;jettySize=auto;html=1;entryX=0;entryY=0.5;entryDx=0;entryDy=0;endArrow=none;endFill=0;" edge="1" parent="1" source="WWGTJWQt7VlASsxpaa12-18" target="WWGTJWQt7VlASsxpaa12-6">
          <mxGeometry relative="1" as="geometry" />
        </mxCell>
        <mxCell id="WWGTJWQt7VlASsxpaa12-2" value="Studio" style="rounded=0;whiteSpace=wrap;html=1;" vertex="1" parent="1">
          <mxGeometry x="50" y="230" width="120" height="60" as="geometry" />
        </mxCell>
        <mxCell id="WWGTJWQt7VlASsxpaa12-3" value="address" style="ellipse;whiteSpace=wrap;html=1;" vertex="1" parent="1">
          <mxGeometry x="30" y="90" width="120" height="60" as="geometry" />
        </mxCell>
        <mxCell id="WWGTJWQt7VlASsxpaa12-4" value="press" style="ellipse;whiteSpace=wrap;html=1;" vertex="1" parent="1">
          <mxGeometry x="150" y="120" width="120" height="60" as="geometry" />
        </mxCell>
        <mxCell id="WWGTJWQt7VlASsxpaa12-6" value="Movie" style="rounded=0;whiteSpace=wrap;html=1;" vertex="1" parent="1">
          <mxGeometry x="490" y="230" width="120" height="60" as="geometry" />
        </mxCell>
        <mxCell id="WWGTJWQt7VlASsxpaa12-7" value="&lt;u&gt;title&lt;/u&gt;" style="ellipse;whiteSpace=wrap;html=1;" vertex="1" parent="1">
          <mxGeometry x="370" y="100" width="120" height="60" as="geometry" />
        </mxCell>
        <mxCell id="WWGTJWQt7VlASsxpaa12-8" value="&lt;u&gt;year&lt;span style=&quot;color: rgba(0, 0, 0, 0); font-family: monospace; font-size: 0px; text-align: start; text-wrap-mode: nowrap;&quot;&gt;%3CmxGraphModel%3E%3Croot%3E%3CmxCell%20id%3D%220%22%2F%3E%3CmxCell%20id%3D%221%22%20parent%3D%220%22%2F%3E%3CmxCell%20id%3D%222%22%20value%3D%22title%22%20style%3D%22ellipse%3BwhiteSpace%3Dwrap%3Bhtml%3D1%3B%22%20vertex%3D%221%22%20parent%3D%221%22%3E%3CmxGeometry%20x%3D%22414%22%20y%3D%2290%22%20width%3D%22120%22%20height%3D%2260%22%20as%3D%22geometry%22%2F%3E%3C%2FmxCell%3E%3C%2Froot%3E%3C%2FmxGraphModel%3E&lt;/span&gt;&lt;span style=&quot;color: rgba(0, 0, 0, 0); font-family: monospace; font-size: 0px; text-align: start; text-wrap-mode: nowrap;&quot;&gt;%3CmxGraphModel%3E%3Croot%3E%3CmxCell%20id%3D%220%22%2F%3E%3CmxCell%20id%3D%221%22%20parent%3D%220%22%2F%3E%3CmxCell%20id%3D%222%22%20value%3D%22title%22%20style%3D%22ellipse%3BwhiteSpace%3Dwrap%3Bhtml%3D1%3B%22%20vertex%3D%221%22%20parent%3D%221%22%3E%3CmxGeometry%20x%3D%22414%22%20y%3D%2290%22%20width%3D%22120%22%20height%3D%2260%22%20as%3D%22geometry%22%2F%3E%3C%2FmxCell%3E%3C%2Froot%3E%3C%2FmxGraphModel%3E&lt;/span&gt;&lt;/u&gt;" style="ellipse;whiteSpace=wrap;html=1;" vertex="1" parent="1">
          <mxGeometry x="489" y="70" width="120" height="60" as="geometry" />
        </mxCell>
        <mxCell id="WWGTJWQt7VlASsxpaa12-9" value="length&lt;span style=&quot;color: rgba(0, 0, 0, 0); font-family: monospace; font-size: 0px; text-align: start; text-wrap-mode: nowrap;&quot;&gt;%3CmxGraphModel%3E%3Croot%3E%3CmxCell%20id%3D%220%22%2F%3E%3CmxCell%20id%3D%221%22%20parent%3D%220%22%2F%3E%3CmxCell%20id%3D%222%22%20value%3D%22year%26lt%3Bspan%20style%3D%26quot%3Bcolor%3A%20rgba(0%2C%200%2C%200%2C%200)%3B%20font-family%3A%20monospace%3B%20font-size%3A%200px%3B%20text-align%3A%20start%3B%20text-wrap-mode%3A%20nowrap%3B%26quot%3B%26gt%3B%253CmxGraphModel%253E%253Croot%253E%253CmxCell%2520id%253D%25220%2522%252F%253E%253CmxCell%2520id%253D%25221%2522%2520parent%253D%25220%2522%252F%253E%253CmxCell%2520id%253D%25222%2522%2520value%253D%2522title%2522%2520style%253D%2522ellipse%253BwhiteSpace%253Dwrap%253Bhtml%253D1%253B%2522%2520vertex%253D%25221%2522%2520parent%253D%25221%2522%253E%253CmxGeometry%2520x%253D%2522414%2522%2520y%253D%252290%2522%2520width%253D%2522120%2522%2520height%253D%252260%2522%2520as%253D%2522geometry%2522%252F%253E%253C%252FmxCell%253E%253C%252Froot%253E%253C%252FmxGraphModel%253E%26lt%3B%2Fspan%26gt%3B%26lt%3Bspan%20style%3D%26quot%3Bcolor%3A%20rgba(0%2C%200%2C%200%2C%200)%3B%20font-family%3A%20monospace%3B%20font-size%3A%200px%3B%20text-align%3A%20start%3B%20text-wrap-mode%3A%20nowrap%3B%26quot%3B%26gt%3B%253CmxGraphModel%253E%253Croot%253E%253CmxCell%2520id%253D%25220%2522%252F%253E%253CmxCell%2520id%253D%25221%2522%2520parent%253D%25220%2522%252F%253E%253CmxCell%2520id%253D%25222%2522%2520value%253D%2522title%2522%2520style%253D%2522ellipse%253BwhiteSpace%253Dwrap%253Bhtml%253D1%253B%2522%2520vertex%253D%25221%2522%2520parent%253D%25221%2522%253E%253CmxGeometry%2520x%253D%2522414%2522%2520y%253D%252290%2522%2520width%253D%2522120%2522%2520height%253D%252260%2522%2520as%253D%2522geometry%2522%252F%253E%253C%252FmxCell%253E%253C%252Froot%253E%253C%252FmxGraphModel%253E%26lt%3B%2Fspan%26gt%3B%22%20style%3D%22ellipse%3BwhiteSpace%3Dwrap%3Bhtml%3D1%3B%22%20vertex%3D%221%22%20parent%3D%221%22%3E%3CmxGeometry%20x%3D%22580%22%20y%3D%2290%22%20width%3D%22120%22%20height%3D%2260%22%20as%3D%22geometry%22%2F%3E%3C%2FmxCell%3E%3C%2Froot%3E%3C%2FmxGraphModel%3E&lt;/span&gt;" style="ellipse;whiteSpace=wrap;html=1;" vertex="1" parent="1">
          <mxGeometry x="630" y="90" width="120" height="60" as="geometry" />
        </mxCell>
        <mxCell id="WWGTJWQt7VlASsxpaa12-10" value="inColor" style="ellipse;whiteSpace=wrap;html=1;" vertex="1" parent="1">
          <mxGeometry x="660" y="160" width="120" height="60" as="geometry" />
        </mxCell>
        <mxCell id="WWGTJWQt7VlASsxpaa12-12" value="MovieStar" style="rounded=0;whiteSpace=wrap;html=1;" vertex="1" parent="1">
          <mxGeometry x="489" y="560" width="120" height="60" as="geometry" />
        </mxCell>
        <mxCell id="WWGTJWQt7VlASsxpaa12-13" value="&lt;u&gt;name&lt;span style=&quot;color: rgba(0, 0, 0, 0); font-family: monospace; font-size: 0px; text-align: start; text-wrap-mode: nowrap;&quot;&gt;%3CmxGraphModel%3E%3Croot%3E%3CmxCell%20id%3D%220%22%2F%3E%3CmxCell%20id%3D%221%22%20parent%3D%220%22%2F%3E%3CmxCell%20id%3D%222%22%20value%3D%22title%22%20style%3D%22ellipse%3BwhiteSpace%3Dwrap%3Bhtml%3D1%3B%22%20vertex%3D%221%22%20parent%3D%221%22%3E%3CmxGeometry%20x%3D%22414%22%20y%3D%2290%22%20width%3D%22120%22%20height%3D%2260%22%20as%3D%22geometry%22%2F%3E%3C%2FmxCell%3E%3C%2Froot%3E%3C%2FmxGraphModel%3E&lt;/span&gt;&lt;/u&gt;" style="ellipse;whiteSpace=wrap;html=1;" vertex="1" parent="1">
          <mxGeometry x="340" y="630" width="120" height="60" as="geometry" />
        </mxCell>
        <mxCell id="WWGTJWQt7VlASsxpaa12-14" value="birthplace" style="ellipse;whiteSpace=wrap;html=1;" vertex="1" parent="1">
          <mxGeometry x="430" y="700" width="120" height="60" as="geometry" />
        </mxCell>
        <mxCell id="WWGTJWQt7VlASsxpaa12-15" value="birthdate&lt;span style=&quot;color: rgba(0, 0, 0, 0); font-family: monospace; font-size: 0px; text-align: start; text-wrap-mode: nowrap;&quot;&gt;%3CmxGraphModel%3E%3Croot%3E%3CmxCell%20id%3D%220%22%2F%3E%3CmxCell%20id%3D%221%22%20parent%3D%220%22%2F%3E%3CmxCell%20id%3D%222%22%20value%3D%22birthplace%22%20style%3D%22ellipse%3BwhiteSpace%3Dwrap%3Bhtml%3D1%3B%22%20vertex%3D%221%22%20parent%3D%221%22%3E%3CmxGeometry%20x%3D%22150%22%20y%3D%22525%22%20width%3D%22120%22%20height%3D%2260%22%20as%3D%22geometry%22%2F%3E%3C%2FmxCell%3E%3C%2Froot%3E%3C%2FmxGraphModel%3E&lt;/span&gt;" style="ellipse;whiteSpace=wrap;html=1;" vertex="1" parent="1">
          <mxGeometry x="589" y="710" width="120" height="60" as="geometry" />
        </mxCell>
        <mxCell id="WWGTJWQt7VlASsxpaa12-16" value="gender" style="ellipse;whiteSpace=wrap;html=1;" vertex="1" parent="1">
          <mxGeometry x="640" y="630" width="120" height="60" as="geometry" />
        </mxCell>
        <mxCell id="WWGTJWQt7VlASsxpaa12-19" value="" style="edgeStyle=orthogonalEdgeStyle;rounded=0;orthogonalLoop=1;jettySize=auto;html=1;entryX=0;entryY=0.5;entryDx=0;entryDy=0;endArrow=none;endFill=0;startArrow=classic;startFill=1;" edge="1" parent="1" source="WWGTJWQt7VlASsxpaa12-2" target="WWGTJWQt7VlASsxpaa12-18">
          <mxGeometry relative="1" as="geometry">
            <mxPoint x="170" y="260" as="sourcePoint" />
            <mxPoint x="490" y="260" as="targetPoint" />
          </mxGeometry>
        </mxCell>
        <mxCell id="WWGTJWQt7VlASsxpaa12-18" value="create" style="rhombus;whiteSpace=wrap;html=1;" vertex="1" parent="1">
          <mxGeometry x="290" y="220" width="80" height="80" as="geometry" />
        </mxCell>
        <mxCell id="WWGTJWQt7VlASsxpaa12-24" value="" style="endArrow=none;html=1;rounded=0;entryX=0.7;entryY=0.973;entryDx=0;entryDy=0;entryPerimeter=0;exitX=0.466;exitY=0.004;exitDx=0;exitDy=0;exitPerimeter=0;" edge="1" parent="1" source="WWGTJWQt7VlASsxpaa12-2" target="WWGTJWQt7VlASsxpaa12-1">
          <mxGeometry width="50" height="50" relative="1" as="geometry">
            <mxPoint x="-60" y="280" as="sourcePoint" />
            <mxPoint x="-10" y="230" as="targetPoint" />
          </mxGeometry>
        </mxCell>
        <mxCell id="WWGTJWQt7VlASsxpaa12-25" value="" style="endArrow=none;html=1;rounded=0;entryX=0.5;entryY=1;entryDx=0;entryDy=0;exitX=0.5;exitY=0;exitDx=0;exitDy=0;" edge="1" parent="1" source="WWGTJWQt7VlASsxpaa12-2" target="WWGTJWQt7VlASsxpaa12-3">
          <mxGeometry width="50" height="50" relative="1" as="geometry">
            <mxPoint x="152" y="231" as="sourcePoint" />
            <mxPoint x="60" y="190" as="targetPoint" />
          </mxGeometry>
        </mxCell>
        <mxCell id="WWGTJWQt7VlASsxpaa12-26" value="" style="endArrow=none;html=1;rounded=0;entryX=0.103;entryY=0.807;entryDx=0;entryDy=0;exitX=0.5;exitY=0;exitDx=0;exitDy=0;entryPerimeter=0;" edge="1" parent="1" source="WWGTJWQt7VlASsxpaa12-2" target="WWGTJWQt7VlASsxpaa12-4">
          <mxGeometry width="50" height="50" relative="1" as="geometry">
            <mxPoint x="160" y="290" as="sourcePoint" />
            <mxPoint x="170" y="200" as="targetPoint" />
          </mxGeometry>
        </mxCell>
        <mxCell id="WWGTJWQt7VlASsxpaa12-30" value="" style="endArrow=none;html=1;rounded=0;entryX=0.746;entryY=0.952;entryDx=0;entryDy=0;exitX=0.5;exitY=0;exitDx=0;exitDy=0;entryPerimeter=0;" edge="1" parent="1" source="WWGTJWQt7VlASsxpaa12-6" target="WWGTJWQt7VlASsxpaa12-7">
          <mxGeometry width="50" height="50" relative="1" as="geometry">
            <mxPoint x="560" y="250" as="sourcePoint" />
            <mxPoint x="520" y="190" as="targetPoint" />
          </mxGeometry>
        </mxCell>
        <mxCell id="WWGTJWQt7VlASsxpaa12-31" value="" style="endArrow=none;html=1;rounded=0;entryX=0.5;entryY=1;entryDx=0;entryDy=0;exitX=0.5;exitY=0;exitDx=0;exitDy=0;" edge="1" parent="1" source="WWGTJWQt7VlASsxpaa12-6" target="WWGTJWQt7VlASsxpaa12-8">
          <mxGeometry width="50" height="50" relative="1" as="geometry">
            <mxPoint x="580" y="273" as="sourcePoint" />
            <mxPoint x="570" y="180" as="targetPoint" />
          </mxGeometry>
        </mxCell>
        <mxCell id="WWGTJWQt7VlASsxpaa12-32" value="" style="endArrow=none;html=1;rounded=0;entryX=0;entryY=0.5;entryDx=0;entryDy=0;exitX=0.5;exitY=0;exitDx=0;exitDy=0;" edge="1" parent="1" source="WWGTJWQt7VlASsxpaa12-6" target="WWGTJWQt7VlASsxpaa12-9">
          <mxGeometry width="50" height="50" relative="1" as="geometry">
            <mxPoint x="610" y="266" as="sourcePoint" />
            <mxPoint x="668" y="170" as="targetPoint" />
          </mxGeometry>
        </mxCell>
        <mxCell id="WWGTJWQt7VlASsxpaa12-33" value="" style="endArrow=none;html=1;rounded=0;entryX=0.019;entryY=0.39;entryDx=0;entryDy=0;exitX=0.5;exitY=0;exitDx=0;exitDy=0;entryPerimeter=0;" edge="1" parent="1" source="WWGTJWQt7VlASsxpaa12-6" target="WWGTJWQt7VlASsxpaa12-10">
          <mxGeometry width="50" height="50" relative="1" as="geometry">
            <mxPoint x="650" y="270" as="sourcePoint" />
            <mxPoint x="760" y="240" as="targetPoint" />
          </mxGeometry>
        </mxCell>
        <mxCell id="WWGTJWQt7VlASsxpaa12-38" value="" style="endArrow=none;html=1;rounded=0;entryX=0.5;entryY=1;entryDx=0;entryDy=0;exitX=0.967;exitY=0.333;exitDx=0;exitDy=0;exitPerimeter=0;" edge="1" parent="1" source="WWGTJWQt7VlASsxpaa12-13" target="WWGTJWQt7VlASsxpaa12-12">
          <mxGeometry width="50" height="50" relative="1" as="geometry">
            <mxPoint x="529" y="620" as="sourcePoint" />
            <mxPoint x="579" y="570" as="targetPoint" />
          </mxGeometry>
        </mxCell>
        <mxCell id="WWGTJWQt7VlASsxpaa12-39" value="" style="endArrow=none;html=1;rounded=0;exitX=0.67;exitY=0.057;exitDx=0;exitDy=0;exitPerimeter=0;entryX=0.5;entryY=1;entryDx=0;entryDy=0;" edge="1" parent="1" source="WWGTJWQt7VlASsxpaa12-14" target="WWGTJWQt7VlASsxpaa12-12">
          <mxGeometry width="50" height="50" relative="1" as="geometry">
            <mxPoint x="439" y="664.64" as="sourcePoint" />
            <mxPoint x="550" y="630" as="targetPoint" />
          </mxGeometry>
        </mxCell>
        <mxCell id="WWGTJWQt7VlASsxpaa12-40" value="" style="endArrow=none;html=1;rounded=0;entryX=0.5;entryY=1;entryDx=0;entryDy=0;exitX=0;exitY=0;exitDx=0;exitDy=0;" edge="1" parent="1" source="WWGTJWQt7VlASsxpaa12-15" target="WWGTJWQt7VlASsxpaa12-12">
          <mxGeometry width="50" height="50" relative="1" as="geometry">
            <mxPoint x="539" y="725" as="sourcePoint" />
            <mxPoint x="577" y="670" as="targetPoint" />
          </mxGeometry>
        </mxCell>
        <mxCell id="WWGTJWQt7VlASsxpaa12-41" value="" style="endArrow=none;html=1;rounded=0;entryX=0.5;entryY=1;entryDx=0;entryDy=0;exitX=0;exitY=0.5;exitDx=0;exitDy=0;" edge="1" parent="1" source="WWGTJWQt7VlASsxpaa12-16" target="WWGTJWQt7VlASsxpaa12-12">
          <mxGeometry width="50" height="50" relative="1" as="geometry">
            <mxPoint x="647" y="734" as="sourcePoint" />
            <mxPoint x="629" y="670" as="targetPoint" />
          </mxGeometry>
        </mxCell>
        <mxCell id="WWGTJWQt7VlASsxpaa12-45" value="StarsIn" style="rhombus;whiteSpace=wrap;html=1;" vertex="1" parent="1">
          <mxGeometry x="509" y="400" width="80" height="80" as="geometry" />
        </mxCell>
        <mxCell id="WWGTJWQt7VlASsxpaa12-46" value="" style="endArrow=none;html=1;rounded=0;entryX=0.5;entryY=1;entryDx=0;entryDy=0;exitX=0.5;exitY=0;exitDx=0;exitDy=0;" edge="1" parent="1" source="WWGTJWQt7VlASsxpaa12-45" target="WWGTJWQt7VlASsxpaa12-6">
          <mxGeometry width="50" height="50" relative="1" as="geometry">
            <mxPoint x="580" y="490" as="sourcePoint" />
            <mxPoint x="630" y="440" as="targetPoint" />
          </mxGeometry>
        </mxCell>
        <mxCell id="WWGTJWQt7VlASsxpaa12-47" value="" style="endArrow=none;html=1;rounded=0;entryX=0.5;entryY=1;entryDx=0;entryDy=0;exitX=0.5;exitY=0;exitDx=0;exitDy=0;" edge="1" parent="1" source="WWGTJWQt7VlASsxpaa12-12" target="WWGTJWQt7VlASsxpaa12-45">
          <mxGeometry width="50" height="50" relative="1" as="geometry">
            <mxPoint x="570" y="490" as="sourcePoint" />
            <mxPoint x="620" y="440" as="targetPoint" />
          </mxGeometry>
        </mxCell>
        <mxCell id="WWGTJWQt7VlASsxpaa12-48" value="movieTitle" style="ellipse;whiteSpace=wrap;html=1;" vertex="1" parent="1">
          <mxGeometry x="660" y="480" width="120" height="70" as="geometry" />
        </mxCell>
        <mxCell id="WWGTJWQt7VlASsxpaa12-49" value="starName" style="ellipse;whiteSpace=wrap;html=1;" vertex="1" parent="1">
          <mxGeometry x="669" y="330" width="120" height="60" as="geometry" />
        </mxCell>
        <mxCell id="WWGTJWQt7VlASsxpaa12-51" value="movieYear" style="ellipse;whiteSpace=wrap;html=1;" vertex="1" parent="1">
          <mxGeometry x="690" y="400" width="120" height="60" as="geometry" />
        </mxCell>
        <mxCell id="WWGTJWQt7VlASsxpaa12-52" value="" style="endArrow=none;html=1;rounded=0;entryX=1;entryY=0.5;entryDx=0;entryDy=0;exitX=0.037;exitY=0.328;exitDx=0;exitDy=0;exitPerimeter=0;" edge="1" parent="1" source="WWGTJWQt7VlASsxpaa12-48" target="WWGTJWQt7VlASsxpaa12-45">
          <mxGeometry width="50" height="50" relative="1" as="geometry">
            <mxPoint x="690" y="510" as="sourcePoint" />
            <mxPoint x="740" y="460" as="targetPoint" />
          </mxGeometry>
        </mxCell>
        <mxCell id="WWGTJWQt7VlASsxpaa12-53" value="" style="endArrow=none;html=1;rounded=0;entryX=1;entryY=0.5;entryDx=0;entryDy=0;exitX=0;exitY=0.5;exitDx=0;exitDy=0;" edge="1" parent="1" source="WWGTJWQt7VlASsxpaa12-51" target="WWGTJWQt7VlASsxpaa12-45">
          <mxGeometry width="50" height="50" relative="1" as="geometry">
            <mxPoint x="690" y="510" as="sourcePoint" />
            <mxPoint x="740" y="460" as="targetPoint" />
          </mxGeometry>
        </mxCell>
        <mxCell id="WWGTJWQt7VlASsxpaa12-54" value="" style="endArrow=none;html=1;rounded=0;entryX=1;entryY=0.5;entryDx=0;entryDy=0;exitX=0.017;exitY=0.649;exitDx=0;exitDy=0;exitPerimeter=0;" edge="1" parent="1" source="WWGTJWQt7VlASsxpaa12-49" target="WWGTJWQt7VlASsxpaa12-45">
          <mxGeometry width="50" height="50" relative="1" as="geometry">
            <mxPoint x="690" y="390" as="sourcePoint" />
            <mxPoint x="740" y="340" as="targetPoint" />
          </mxGeometry>
        </mxCell>
      </root>
    </mxGraphModel>
  </diagram>
</mxfile>
